<svg xmlns="http://www.w3.org/2000/svg" width="256" height="256" viewBox="0 0 100 100"><rect width="100" height="100" rx="20" fill="#2d17bf"></rect><path fill="#ffffff" d="M72.36 30.34L72.36 30.34Q72.36 32.41 71.28 33.98Q70.20 35.55 68.76 36.45L68.76 36.45Q66.42 34.92 63.68 33.76Q60.93 32.59 57.15 32.59L57.15 32.59Q49.95 32.59 45.91 37.13Q41.85 41.67 41.85 50.05L41.85 50.05Q41.85 58.69 46.13 63.05Q50.41 67.41 57.87 67.41L57.87 67.41Q61.74 67.41 64.49 66.38Q67.23 65.34 69.57 63.91L69.57 63.91Q70.92 64.98 71.78 66.65Q72.63 68.31 72.63 70.38L72.63 70.38Q72.63 72.19 71.69 73.76Q70.75 75.33 68.41 76.41L68.41 76.41Q66.60 77.31 63.54 78.08Q60.48 78.84 55.98 78.84L55.98 78.84Q49.95 78.84 44.73 77.13Q39.52 75.42 35.64 71.91Q31.77 68.41 29.57 62.96Q27.36 57.52 27.36 50.05L27.36 50.05Q27.36 43.02 29.57 37.63Q31.77 32.23 35.55 28.58Q39.33 24.94 44.38 23.05Q49.41 21.16 55.17 21.16L55.17 21.16Q63.36 21.16 67.86 23.77Q72.36 26.38 72.36 30.34Z"></path></svg>